<svg id="Calque_2" data-name="Calque 2" xmlns="http://www.w3.org/2000/svg" viewBox="0 0 1963.65 1848.71">
  <defs>
    <style>
      .cls-1 {
        fill: #fff;
      }
    </style>
  </defs>
  <path class="cls-1" d="M1963.65,582.1c0,180.82-94.49,321.74-218.83,372.85-104.91,43.14-208,46.12-366.62,45.23v-.87h-499.38l-66.69,377.03c-27.24,7.21-74.89,17.34-143,30.35-68.1,13.02-144.37,19.54-228.87,19.54-138.42,0-246.4-39.23-323.93-117.7C38.76,1230.05,0,1120.97,0,981.28c0-111.3,15.68-213.98,47.11-308.04,31.41-94.04,76.84-176.01,136.32-245.84,59.48-69.83,131.2-123.95,215.13-162.37,83.93-38.4,178.17-57.61,282.67-57.61,83.38,0,150.5,11.02,201.35,33.01,50.86,21.98,92.14,50.25,123.84,84.78l-129.26,186.29c-26.12-26.44-57.25-48.82-93.38-67.12-36.13-18.29-78.65-27.45-127.56-27.45-60.04,0-115.91,13.26-167.62,39.74-51.69,26.5-96.86,64-135.48,112.53-38.65,48.53-68.66,105.85-90.06,171.94-21.41,66.08-32.1,139.01-32.1,218.77,0,171.23,82.54,256.83,247.64,256.83,51.66,0,98.98-3.73,141.95-11.21l36.46-206.2h-191.74l37.93-202.92,814.48.5h0c131.64,1.69,224.93,5.9,300.25-17.16,74.01-22.65,127.23-69.23,127.23-173.03,0-63.06-19.66-115.28-66.36-147.93-46.7-32.65-131.82-41.86-222.97-41.86-25.02,0-49.04.25-72.02.74l-60.11,344.75h-221.8l93.78-537.86c63.92-11.41,148.71-17.13,254.32-17.13,168.99,0,296.85,31.73,383.56,95.13,86.71,63.43,130.08,156.61,130.08,279.55Z"/>
  <path class="cls-1" d="M1221.4,999.32c21.13,0,41.44.08,60.97.18,34.17.21,65.97.51,95.83.69v-.87h-156.8ZM1054.68,1033.31l-105.96,607.76h221.8l105.96-607.76h-221.8ZM1221.4,999.32c21.13,0,41.44.08,60.97.18l.04-.18h-61.01Z"/>
</svg>