<svg xmlns="http://www.w3.org/2000/svg" viewBox="0 0 1440 320">
    <path fill="#0099ff" fill-opacity="1" d="M0,160L26.7,170.7C53.3,181,107,203,160,224C213.3,245,267,267,320,266.7C373.3,267,427,245,480,213.3C533.3,181,587,139,640,106.7C693.3,75,747,53,800,85.3C853.3,117,907,203,960,202.7C1013.3,203,1067,117,1120,112C1173.3,107,1227,181,1280,202.7C1333.3,224,1387,192,1413,176L1440,160L1440,320L1413.3,320C1386.7,320,1333,320,1280,320C1226.7,320,1173,320,1120,320C1066.7,320,1013,320,960,320C906.7,320,853,320,800,320C746.7,320,693,320,640,320C586.7,320,533,320,480,320C426.7,320,373,320,320,320C266.7,320,213,320,160,320C106.7,320,53,320,27,320L0,320Z"></path>
</svg>